<svg xmlns="http://www.w3.org/2000/svg" viewBox="0 0 365.24 152.15"><defs><style>.cls-1{fill:#fff;}.cls-2{fill:#ffcb48;}</style></defs><title>Mesa de trabajo 2</title><g id="Capa_1" data-name="Capa 1"><rect class="cls-1" x="-52.27" y="-275.28" width="472.18" height="968"/></g><g id="Capa_2" data-name="Capa 2"><path d="M159.12,57.41h25.23c-4.53,7.48-12.76,21-25.08,41.29l-.15.24v15.49h44.72V98.22H178.62Q187.29,84,203.69,56.93l.15-.24V41.2H159.12Z"/><path d="M227.69,41.2H212.48V57.41h7.15v57h16.21V49.26a8.07,8.07,0,0,0-2.34-5.75A8.15,8.15,0,0,0,227.69,41.2Z"/><path d="M309.65,41.2H288.2a8.05,8.05,0,0,0-5.75,2.34,8.37,8.37,0,0,0-1.33,1.8,8.51,8.51,0,0,0-1.4-1.82A7.82,7.82,0,0,0,274,41.2H252.63a8.09,8.09,0,0,0-8.15,8.06v65.17h16.21v-57H273v57H289.2v-57h12.3v57h16.2V49.26a7.92,7.92,0,0,0-8.05-8.06Z"/><path d="M347.37,43.51a8.18,8.18,0,0,0-5.82-2.31h-15.2V57.41h7.15v57h16.2V49.26A8.06,8.06,0,0,0,347.37,43.51Z"/><path class="cls-2" d="M135.07,122.21a12.86,12.86,0,0,1-12.86,12.86H29.94a12.87,12.87,0,0,1-12.87-12.86V29.94A12.87,12.87,0,0,1,29.94,17.07h92.27a12.87,12.87,0,0,1,12.86,12.87Z"/><path d="M107.3,40.25H81.15a6.93,6.93,0,0,0-7.05,7,7.1,7.1,0,0,0-7.15-7H45.59a7.08,7.08,0,0,0-7.15,7v64.6c5.59-.11,14.2-3.76,14.2-17.47v-40H67V77.78L81.13,54.45H97l-4.26,7h0l-.57.94Q85,74.29,71.38,96.63l-.38.64v14.21h42.71c-.1-5.6-3.76-14.21-17.47-14.21H87.72l26-42.81V46.67A6.41,6.41,0,0,0,107.3,40.25Z"/></g></svg>